<svg width="18" height="18" viewBox="0 0 18 18" fill="none" xmlns="http://www.w3.org/2000/svg">
<path d="M17.6682 1.92167L15.2084 4.38892C14.0985 5.5063 12.1562 5.5063 11.0389 4.38892L9.86897 3.21904C9.6065 2.95657 9.14905 2.95657 8.88657 3.21904L6.20935 5.88876C5.65441 6.4437 4.91199 6.75117 4.12457 6.75117C3.33715 6.75117 2.59473 6.4437 2.03979 5.88876L0.329966 4.17144C-0.104989 3.72899 -0.104989 3.01656 0.329966 2.58161C0.77242 2.13915 1.48485 2.14665 1.9198 2.58161L3.62962 4.29893C3.89209 4.5614 4.34955 4.5614 4.61202 4.29893L7.28924 1.62921C8.39913 0.519321 10.3414 0.519321 11.4588 1.62921L12.6287 2.79908C12.8912 3.06156 13.3486 3.06156 13.6111 2.79908L16.0783 0.33184C16.5133 -0.110613 17.2257 -0.110613 17.6682 0.33184C18.1106 0.774294 18.1106 1.48672 17.6682 1.92167ZM4.87449 9.75086C4.25206 9.75086 3.74961 10.2533 3.74961 10.8757V16.8751C3.74961 17.4976 4.25206 18 4.87449 18C5.49693 18 5.99938 17.4976 5.99938 16.8751V10.8757C5.99938 10.2533 5.49693 9.75086 4.87449 9.75086ZM1.12488 8.25101C0.502448 8.25101 0 8.75346 0 9.3759V16.8751C0 17.4976 0.502448 18 1.12488 18C1.74732 18 2.24977 17.4976 2.24977 16.8751V9.3759C2.24977 8.75346 1.74732 8.25101 1.12488 8.25101ZM8.6241 6.75117C8.00167 6.75117 7.49922 7.25362 7.49922 7.87605V16.8751C7.49922 17.4976 8.00167 18 8.6241 18C9.24654 18 9.74899 17.4976 9.74899 16.8751V7.87605C9.74899 7.25362 9.24654 6.75117 8.6241 6.75117ZM12.3737 8.25101C11.7513 8.25101 11.2488 8.75346 11.2488 9.3759V16.8751C11.2488 17.4976 11.7513 18 12.3737 18C12.9961 18 13.4986 17.4976 13.4986 16.8751V9.3759C13.4986 8.75346 12.9961 8.25101 12.3737 8.25101ZM16.1233 6.00125C15.5009 6.00125 14.9984 6.5037 14.9984 7.12613V16.8751C14.9984 17.4976 15.5009 18 16.1233 18C16.7458 18 17.2482 17.4976 17.2482 16.8751V7.12613C17.2482 6.5037 16.7458 6.00125 16.1233 6.00125Z" fill="#94A3B8"/>
</svg>
