<svg width="22" height="22" viewBox="0 0 22 22" fill="none" xmlns="http://www.w3.org/2000/svg">
<path d="M10.9995 6.42446C8.47471 6.42446 6.4206 8.47951 6.4206 11.0055C6.4206 13.5315 8.47471 15.5865 10.9995 15.5865C13.5244 15.5865 15.5785 13.5315 15.5785 11.0055C15.5785 8.47951 13.5244 6.42446 10.9995 6.42446ZM10.9995 12.8379C9.98943 12.8379 9.16796 12.0161 9.16796 11.0055C9.16796 9.99492 9.98943 9.17308 10.9995 9.17308C12.0097 9.17308 12.8311 9.99492 12.8311 11.0055C12.8311 12.0161 12.0097 12.8379 10.9995 12.8379ZM22 11.0055C22 11.6963 21.8269 12.3743 21.4972 12.968C21.1566 13.5855 20.6886 14.0904 20.1107 14.4642C19.9294 14.5815 19.8351 14.7812 19.8763 14.9608C20.0311 15.6461 20.0091 16.347 19.8094 17.0451C19.7435 17.2714 19.6602 17.4868 19.5594 17.6938C19.3213 18.1803 18.8332 18.4634 18.3249 18.4634C18.1216 18.4634 17.9165 18.4185 17.7214 18.3233C17.0401 17.9898 16.758 17.1661 17.0923 16.4844C17.1234 16.4212 17.1491 16.3534 17.1692 16.2847C17.2388 16.0401 17.2489 15.7982 17.1967 15.5691C16.9009 14.2681 17.4723 12.8956 18.6198 12.1544C18.8131 12.0298 18.9724 11.8557 19.0933 11.6368C19.1977 11.448 19.2526 11.2318 19.2526 11.0064C19.2526 10.781 19.1977 10.5648 19.0951 10.3788C18.9724 10.1562 18.8131 9.98118 18.6189 9.85657C17.4723 9.11628 16.9009 7.7438 17.1967 6.44095C17.2489 6.21373 17.2388 5.97093 17.1674 5.72172C17.0492 5.31035 16.6921 4.95302 16.2791 4.83483C16.0318 4.7652 15.791 4.75421 15.562 4.80551C14.2579 5.10328 12.8879 4.52882 12.147 3.38173C12.0234 3.18932 11.8476 3.0299 11.6269 2.90621C11.2514 2.69823 10.7459 2.69823 10.3695 2.90621C10.1488 3.02899 9.97386 3.18841 9.85023 3.38081C9.10935 4.5279 7.73659 5.0987 6.43525 4.8046C6.20905 4.75329 5.9682 4.76245 5.71819 4.83392C5.30517 4.95211 4.94892 5.30943 4.82987 5.72264C4.75844 5.97093 4.74928 6.21281 4.80057 6.44186C5.09637 7.74288 4.52491 9.11628 3.37743 9.85657C3.18511 9.98118 3.02577 10.1562 2.90305 10.377C2.80048 10.5621 2.74645 10.7792 2.74645 11.0055C2.74645 11.2318 2.80048 11.448 2.90305 11.634C3.02577 11.8548 3.18511 12.0307 3.37926 12.1553C4.52491 12.8947 5.09728 14.2681 4.80057 15.571C4.74928 15.7982 4.75936 16.041 4.83079 16.2893C4.85002 16.3562 4.87566 16.4221 4.9068 16.4844C5.24015 17.1661 4.959 17.9898 4.27765 18.3233C3.5963 18.6586 2.77393 18.3764 2.43966 17.6938C2.33801 17.4858 2.25467 17.2696 2.19057 17.047C1.99093 16.347 1.96803 15.647 2.1228 14.9626C2.16401 14.7812 2.0706 14.5815 1.89019 14.4651C1.31233 14.0913 0.845273 13.5874 0.501852 12.9671C0.173084 12.3743 0 11.6963 0 11.0055C0 10.3147 0.173084 9.63668 0.500937 9.0439C0.844357 8.42362 1.31141 7.91971 1.88836 7.54681C2.0706 7.42954 2.16401 7.2298 2.1228 7.05023C1.96803 6.36399 1.99001 5.66309 2.19057 4.96493C2.57245 3.63552 3.63477 2.57271 4.96358 2.19157C5.66141 1.99367 6.36107 1.96985 7.04517 2.12469C7.22741 2.16408 7.42613 2.07155 7.54244 1.89105C7.91425 1.31476 8.41702 0.847493 9.03884 0.502999C10.2486 -0.167666 11.7505 -0.167666 12.9602 0.502999C13.5802 0.846577 14.0839 1.31384 14.4566 1.89014C14.5748 2.07155 14.7763 2.16134 14.9548 2.12469C15.6371 1.96893 16.3404 1.99275 17.0355 2.19157C18.3643 2.57271 19.4266 3.6346 19.8085 4.96402C20.0091 5.66492 20.0311 6.3649 19.8763 7.04839C19.8351 7.2298 19.9294 7.42954 20.1098 7.54589C20.6886 7.92062 21.1566 8.42546 21.4991 9.04664C21.826 9.63668 22 10.3147 22 11.0055ZM15.5748 19.2514C15.5748 20.7695 15.7186 22 14.2011 22C13.2579 22 11.8943 20.9372 10.9977 20.1328C10.1012 20.9363 8.73754 22 7.79428 22C6.27682 22 6.4206 20.7695 6.4206 19.2514C6.4206 17.7332 6.27682 16.5027 7.79428 16.5027C8.73754 16.5027 10.1012 17.5656 10.9977 18.37C11.8943 17.5665 13.2579 16.5027 14.2011 16.5027C15.7186 16.5027 15.5748 17.7332 15.5748 19.2514Z" fill="#94A3B8"/>
</svg>
