<svg width="24" height="24" viewBox="0 0 24 24" fill="none" xmlns="http://www.w3.org/2000/svg">
<path d="M16.6669 18.6225C16.6669 15.3831 14.0396 14.7113 10.8002 14.7113H4.93338C3.31318 14.7113 2 13.3981 2 11.7779V8.84455C2 7.22435 3.31318 5.91117 4.93338 5.91117H10.8002C14.0396 5.91117 16.6669 5.23943 16.6669 1.99999V18.6225Z" stroke="#94A3B8" stroke-width="2.5" stroke-miterlimit="10" stroke-linecap="round" stroke-linejoin="round"/>
<mask id="path-2-inside-1_216_467" fill="white">
<path d="M7.04566 14.2787L10.1238 20.9893C10.7535 22.4062 9.71699 24 8.16719 24C7.21481 24 6.3524 23.4397 5.96519 22.5695L2.0061 13.7331"/>
</mask>
<path d="M10.1238 20.9893L12.3961 19.947L12.4023 19.9605L12.4083 19.974L10.1238 20.9893ZM5.96519 22.5695L8.24667 21.5472L8.2493 21.5532L5.96519 22.5695ZM7.04566 14.2787L9.31801 13.2364L12.3961 19.947L10.1238 20.9893L7.8514 22.0316L4.7733 15.321L7.04566 14.2787ZM10.1238 20.9893L12.4083 19.974C13.773 23.0447 11.5255 26.5 8.16719 26.5V24V21.5C7.90853 21.5 7.73388 21.7677 7.83922 22.0047L10.1238 20.9893ZM8.16719 24V26.5C6.22702 26.5 4.46969 25.3581 3.68109 23.5858L5.96519 22.5695L8.2493 21.5532C8.23511 21.5213 8.20261 21.5 8.16719 21.5V24ZM5.96519 22.5695L3.68372 23.5917L-0.275365 14.7553L2.0061 13.7331L4.28757 12.7109L8.24666 21.5473L5.96519 22.5695Z" fill="#94A3B8" mask="url(#path-2-inside-1_216_467)"/>
<path d="M21.5559 14.7113L22.5337 15.2002" stroke="#94A3B8" stroke-width="2.5" stroke-miterlimit="10" stroke-linecap="round" stroke-linejoin="round"/>
<path d="M21.5559 5.91116L22.5337 5.42227" stroke="#94A3B8" stroke-width="2.5" stroke-miterlimit="10" stroke-linecap="round" stroke-linejoin="round"/>
<path d="M21.5559 10.3112H22.5337" stroke="#94A3B8" stroke-width="2.5" stroke-miterlimit="10" stroke-linecap="round" stroke-linejoin="round"/>
</svg>
