<svg width="18" height="18" viewBox="0 0 18 18" fill="none" xmlns="http://www.w3.org/2000/svg">
<path d="M6.375 0H3.75C1.68225 0 0 1.68225 0 3.75V4.875C0 5.90925 0.84075 6.75 1.875 6.75H6.375C7.40925 6.75 8.25 5.90925 8.25 4.875V1.875C8.25 0.84075 7.40925 0 6.375 0ZM6 4.5H2.25V3.75C2.25 2.92275 2.92275 2.25 3.75 2.25H6V4.5ZM16.125 11.25H11.625C10.5907 11.25 9.75 12.0907 9.75 13.125V16.125C9.75 17.1593 10.5907 18 11.625 18H14.25C16.3177 18 18 16.3177 18 14.25V13.125C18 12.0907 17.1593 11.25 16.125 11.25ZM15.75 14.25C15.75 15.0773 15.0773 15.75 14.25 15.75H12V13.5H15.75V14.25ZM14.25 0H11.625C10.5907 0 9.75 0.84075 9.75 1.875V7.875C9.75 8.90925 10.5907 9.75 11.625 9.75H16.125C17.1593 9.75 18 8.90925 18 7.875V3.75C18 1.68225 16.3177 0 14.25 0ZM15.75 7.5H12V2.25H14.25C15.0773 2.25 15.75 2.92275 15.75 3.75V7.5ZM6.375 8.25H1.875C0.84075 8.25 0 9.09075 0 10.125V14.25C0 16.3177 1.68225 18 3.75 18H6.375C7.40925 18 8.25 17.1593 8.25 16.125V10.125C8.25 9.09075 7.40925 8.25 6.375 8.25ZM6 15.75H3.75C2.92275 15.75 2.25 15.0773 2.25 14.25V10.5H6V15.75Z" fill="#94A3B8"/>
</svg>
