<svg width="20" height="20" viewBox="0 0 20 20" fill="none" xmlns="http://www.w3.org/2000/svg">
<path d="M17.084 11.88V7.99333C17.2807 7.88167 17.4691 7.7525 17.6332 7.58833L19.2558 5.96583C20.2467 4.97417 20.2467 3.36 19.2558 2.3675L17.6332 0.745C16.6415 -0.245 15.0256 -0.245 14.0356 0.745L12.4139 2.36667C12.2488 2.53083 12.1197 2.71917 12.008 2.91667H8.12201C7.58615 1.2325 6.02608 0 4.16684 0C1.86924 0 0 1.86917 0 4.16667C0 5.87083 1.03088 7.335 2.5001 7.98V12.5C1.12171 12.5 0 13.6217 0 15V17.5C0 18.8783 1.12171 20 2.5001 20H5.00021C6.3786 20 7.50031 18.8783 7.50031 17.5V15C7.50031 13.6217 6.3786 12.5 5.00021 12.5V8.24833C6.4861 7.94583 7.66865 6.84167 8.12117 5.41583H12.0063C12.1188 5.61333 12.248 5.80167 12.4122 5.96583L14.0331 7.58667C14.1981 7.75167 14.3864 7.88083 14.5831 7.9925V11.8792C12.8989 12.4142 11.6663 13.9742 11.6663 15.8333C11.6663 18.1308 13.5356 20 15.8332 20C18.1308 20 20 18.1308 20 15.8333C20 13.9742 18.7674 12.4142 17.0832 11.8792L17.084 11.88ZM5.00021 17.5008H2.5001V15.0008H5.00021V17.5008ZM4.16684 5.83417C3.24764 5.83417 2.5001 5.08667 2.5001 4.1675C2.5001 3.24833 3.24764 2.50083 4.16684 2.50083C5.08605 2.50083 5.83358 3.24833 5.83358 4.1675C5.83358 5.08667 5.08605 5.83417 4.16684 5.83417ZM15.8023 2.51417H15.8657L17.4874 4.19917L15.8023 5.82083L14.1806 4.13583L15.8023 2.51417ZM15.834 17.5017C14.9148 17.5017 14.1673 16.7542 14.1673 15.835C14.1673 14.9158 14.9148 14.1683 15.834 14.1683C16.7532 14.1683 17.5007 14.9158 17.5007 15.835C17.5007 16.7542 16.7532 17.5017 15.834 17.5017Z" fill="#94A3B8"/>
</svg>
