<svg width="20" height="20" viewBox="0 0 20 20" fill="none" xmlns="http://www.w3.org/2000/svg">
<path d="M11.6666 5.41667C11.6666 6.1075 11.1066 6.66667 10.4166 6.66667H5.41662C4.72579 6.66667 4.16663 6.1075 4.16663 5.41667C4.16663 4.72583 4.72579 4.16667 5.41662 4.16667H10.4166C11.1066 4.16667 11.6666 4.72583 11.6666 5.41667ZM6.24995 17.5H4.5833C3.43497 17.5 2.49998 16.565 2.49998 15.4167V4.58333C2.49998 3.435 3.43497 2.5 4.5833 2.5H11.2499C12.3991 2.5 13.3332 3.435 13.3332 4.58333V12.0833C13.3332 12.7742 13.8932 13.3333 14.5832 13.3333C15.2732 13.3333 15.8332 12.7742 15.8332 12.0833V4.58333C15.8332 2.05583 13.7766 0 11.2499 0H4.5833C2.05582 0 0 2.05583 0 4.58333V15.4167C0 17.9442 2.05582 20 4.5833 20H6.24995C6.94078 20 7.49994 19.4408 7.49994 18.75C7.49994 18.0592 6.94078 17.5 6.24995 17.5ZM6.24995 12.5H5.41662C4.72579 12.5 4.16663 13.0592 4.16663 13.75C4.16663 14.4408 4.72579 15 5.41662 15H6.24995C6.94078 15 7.49994 14.4408 7.49994 13.75C7.49994 13.0592 6.94078 12.5 6.24995 12.5ZM19.619 12.8517C19.124 12.3717 18.3332 12.3842 17.8515 12.88L13.5999 17.2725C13.3049 17.58 12.7699 17.5725 12.4849 17.2558L10.4924 15.1433C10.0199 14.6417 9.22826 14.6183 8.72493 15.0917C8.22243 15.565 8.19993 16.3567 8.67326 16.8592L10.6657 18.9717C11.8832 20.3108 14.1224 20.3417 15.3824 19.0258L19.6482 14.6192C20.1282 14.1233 20.1157 13.3317 19.619 12.8517ZM10.4166 8.33333H5.41662C4.72579 8.33333 4.16663 8.8925 4.16663 9.58333C4.16663 10.2742 4.72579 10.8333 5.41662 10.8333H10.4166C11.1066 10.8333 11.6666 10.2742 11.6666 9.58333C11.6666 8.8925 11.1066 8.33333 10.4166 8.33333Z" fill="#94A3B8"/>
</svg>
