<svg width="19" height="19" viewBox="0 0 19 19" fill="none" xmlns="http://www.w3.org/2000/svg">
<path d="M8.77046 17.8125C8.77046 18.468 8.23546 19 7.57449 19H4.38523C1.96697 19 0 17.0462 0 14.6458V5.9375C0 3.57912 1.89681 1.65379 4.25527 1.58492C4.70336 0.648375 5.66572 0 6.77717 0H9.16912C10.2814 0 11.2429 0.648375 11.691 1.58492C14.0495 1.65379 15.9463 3.57992 15.9463 5.9375C15.9463 6.593 15.4113 7.125 14.7503 7.125C14.0893 7.125 13.5543 6.593 13.5543 5.9375C13.5543 4.84579 12.6598 3.95833 11.5611 3.95833H10.7637C10.1028 3.95833 9.56777 3.42633 9.56777 2.77083C9.56777 2.55313 9.38918 2.375 9.16912 2.375H6.77717C6.55711 2.375 6.37852 2.55313 6.37852 2.77083C6.37852 3.42633 5.84352 3.95833 5.18254 3.95833H4.38523C3.28653 3.95833 2.39194 4.84579 2.39194 5.9375V14.6458C2.39194 15.7375 3.28653 16.625 4.38523 16.625H7.57449C8.23546 16.625 8.77046 17.157 8.77046 17.8125ZM11.9597 7.52083C11.9597 6.86533 11.4247 6.33333 10.7637 6.33333H5.18254C4.52157 6.33333 3.98657 6.86533 3.98657 7.52083C3.98657 8.17633 4.52157 8.70833 5.18254 8.70833H10.7637C11.4247 8.70833 11.9597 8.17633 11.9597 7.52083ZM5.18254 10.2917C4.52157 10.2917 3.98657 10.8237 3.98657 11.4792C3.98657 12.1347 4.52157 12.6667 5.18254 12.6667H6.77717C7.43815 12.6667 7.97314 12.1347 7.97314 11.4792C7.97314 10.8237 7.43815 10.2917 6.77717 10.2917H5.18254ZM18.8397 16.4271C18.6181 16.8079 18.2162 17.0208 17.8024 17.0208C17.5999 17.0208 17.3942 16.9702 17.206 16.8617L16.6671 16.553C16.3378 16.8316 15.9622 17.0509 15.5476 17.1982V17.8125C15.5476 18.468 15.0126 19 14.3517 19C13.6907 19 13.1557 18.468 13.1557 17.8125V17.1982C12.7403 17.0509 12.3648 16.8316 12.0363 16.553L11.4973 16.8617C11.3091 16.9702 11.1034 17.0208 10.9009 17.0208C10.4871 17.0208 10.0852 16.8079 9.86358 16.4271C9.53349 15.8587 9.72963 15.1327 10.3021 14.805L10.8299 14.5025C10.7909 14.292 10.7637 14.0758 10.7637 13.8542C10.7637 13.6325 10.7901 13.4164 10.8299 13.2058L10.3021 12.9034C9.72963 12.5756 9.53349 11.8497 9.86358 11.2812C10.1945 10.7128 10.9264 10.5181 11.4973 10.8466L12.0363 11.1554C12.3656 10.8767 12.7411 10.6574 13.1557 10.5102V9.89583C13.1557 9.24033 13.6907 8.70833 14.3517 8.70833C15.0126 8.70833 15.5476 9.24033 15.5476 9.89583V10.5102C15.963 10.6574 16.3386 10.8767 16.6671 11.1554L17.206 10.8466C17.7785 10.5181 18.5097 10.7128 18.8397 11.2812C19.1698 11.8497 18.9737 12.5756 18.4012 12.9034L17.8734 13.2058C17.9125 13.4164 17.9396 13.6325 17.9396 13.8542C17.9396 14.0758 17.9133 14.292 17.8734 14.5025L18.4012 14.805C18.9737 15.1327 19.1698 15.8587 18.8397 16.4271ZM15.5476 13.8542C15.5476 13.1995 15.011 12.6667 14.3517 12.6667C13.6923 12.6667 13.1557 13.1995 13.1557 13.8542C13.1557 14.5089 13.6923 15.0417 14.3517 15.0417C15.011 15.0417 15.5476 14.5089 15.5476 13.8542Z" fill="#94A3B8"/>
</svg>
