<svg width="19" height="22" viewBox="0 0 19 22" fill="none" xmlns="http://www.w3.org/2000/svg">
<path d="M4.58 11.33C4.58 12.02 5.14 12.58 5.83 12.58H12.25C12.94 12.58 13.5 12.02 13.5 11.33C13.5 10.64 12.94 10.08 12.25 10.08H5.83C5.14 10.08 4.58 10.64 4.58 11.33ZM9.5 14.67H5.83C5.14 14.67 4.58 15.23 4.58 15.92C4.58 16.61 5.14 17.17 5.83 17.17H9.5C10.19 17.17 10.75 16.61 10.75 15.92C10.75 15.23 10.19 14.67 9.5 14.67ZM16.64 3.88L14.2 1.44C13.28 0.51 12.04 0 10.73 0H4.92C2.21 0 0 2.21 0 4.92V16.84C0 19.55 2.21 21.76 4.92 21.76H13.17C15.88 21.76 18.09 19.55 18.09 16.84V7.35C18.08 6.04 17.57 4.8 16.64 3.88ZM15.58 16.83C15.58 18.16 14.5 19.25 13.16 19.25H4.92C3.59 19.25 2.5 18.17 2.5 16.83V4.92C2.5 3.59 3.58 2.5 4.92 2.5H9.96V6.29C9.96 7.3 10.78 8.12 11.79 8.12H15.58V16.83Z" fill="#94A3B8"/>
</svg>
