<svg width="22" height="22" viewBox="0 0 22 22" fill="none" xmlns="http://www.w3.org/2000/svg">
<path d="M14.2084 11.4584H7.79175" stroke="#94A3B8" stroke-width="2.5" stroke-miterlimit="10" stroke-linecap="round" stroke-linejoin="round"/>
<path d="M11.4584 16.0416H7.79175" stroke="#94A3B8" stroke-width="2.5" stroke-miterlimit="10" stroke-linecap="round" stroke-linejoin="round"/>
<mask id="mask0_216_427" style="mask-type:luminance" maskUnits="userSpaceOnUse" x="0" y="0" width="22" height="22">
<path d="M20.75 20.75V1.25H1.25V20.75H20.75Z" fill="white" stroke="white" stroke-width="2.5"/>
</mask>
<g mask="url(#mask0_216_427)">
<path d="M15.1249 20.625H6.87492C4.85 20.625 3.20825 18.9833 3.20825 16.9583V5.04167C3.20825 3.01675 4.85 1.375 6.87492 1.375H12.6893C13.6619 1.375 14.5951 1.76092 15.2826 2.44842L17.7173 4.88492C18.4048 5.57242 18.7916 6.50467 18.7916 7.47725V16.9583C18.7916 18.9833 17.1498 20.625 15.1249 20.625Z" stroke="#94A3B8" stroke-width="2.5" stroke-miterlimit="10" stroke-linecap="round" stroke-linejoin="round"/>
<path d="M13.7496 6.99972H17.4938C17.4004 6.53691 17.1728 6.10742 16.8336 5.76828L14.399 3.33273C14.06 2.99373 13.6298 2.76699 13.1666 2.67355V6.41672C13.1668 6.73861 13.4278 6.99955 13.7496 6.99972Z" fill="#94A3B8" stroke="#94A3B8" stroke-width="2.5"/>
</g>
</svg>
