<svg width="50" height="50" viewBox="0 0 50 50" fill="none" xmlns="http://www.w3.org/2000/svg">
<g clip-path="url(#clip0_216_822)">
<rect width="50" height="50" rx="24" fill="#384153"/>
<rect x="5" y="5" width="40" height="40" rx="20" fill="url(#paint0_linear_216_822)"/>
<mask id="mask0_216_822" style="mask-type:luminance" maskUnits="userSpaceOnUse" x="16" y="16" width="18" height="18">
<path d="M33.625 33.625V16.375H16.375V33.625H33.625Z" fill="white" stroke="white" stroke-width="0.75"/>
</mask>
<g mask="url(#mask0_216_822)">
<path d="M18.2097 22.9712L17.6247 23.7264C16.8507 24.7232 16.9902 26.1369 17.9442 26.9687L23.6427 32.3687C24.4175 33.0452 25.5852 33.0437 26.3585 32.3657L32.0607 26.9807C32.9975 26.1594 33.146 24.7727 32.4035 23.7774L31.8395 23.0222C31.184 22.1439 30.1407 21.6249 29.0322 21.6249H20.9787C19.892 21.6249 18.8682 22.1229 18.2097 22.9712Z" stroke="#111629" stroke-width="2.25" stroke-miterlimit="10" stroke-linecap="round" stroke-linejoin="round"/>
<path d="M27.5082 25C27.4918 24.6071 27.4147 24.2208 27.2661 23.8555L26.6596 22.3691H23.3588L22.7153 23.9463C22.578 24.2839 22.4999 24.6388 22.475 25H27.5082Z" fill="#111629" stroke="#111629" stroke-width="0.75"/>
<path d="M25.6774 31.9749C25.8001 31.9162 25.9163 31.841 26.0221 31.7484L31.3395 26.7259L31.3493 26.7171C31.6497 26.4536 31.8419 26.1141 31.9254 25.7503H28.2252C28.186 26.0724 28.1124 26.3959 27.9909 26.7122L27.9879 26.721L27.985 26.7288L25.6774 31.9749Z" fill="#111629" stroke="#111629" stroke-width="0.75"/>
<path d="M21.9981 26.8216L21.9942 26.8128L21.9903 26.803C21.8578 26.4588 21.7794 26.1042 21.7423 25.7503H18.0782C18.164 26.1092 18.3555 26.4442 18.6544 26.7054L18.6603 26.7103L18.6651 26.7151L23.9786 31.7503C24.0818 31.8402 24.1944 31.9143 24.3136 31.972L21.9981 26.8216Z" fill="#111629" stroke="#111629" stroke-width="0.75"/>
<path d="M28.3749 17.875L29.1249 17.125" stroke="#111629" stroke-width="2.25" stroke-miterlimit="10" stroke-linecap="round" stroke-linejoin="round"/>
<path d="M21.6249 17.875L20.8749 17.125" stroke="#111629" stroke-width="2.25" stroke-miterlimit="10" stroke-linecap="round" stroke-linejoin="round"/>
<path d="M24.9999 17.875V17.125" stroke="#111629" stroke-width="2.25" stroke-miterlimit="10" stroke-linecap="round" stroke-linejoin="round"/>
</g>
</g>
<defs>
<linearGradient id="paint0_linear_216_822" x1="5" y1="6.38896" x2="32" y2="48" gradientUnits="userSpaceOnUse">
<stop stop-color="#83F888"/>
<stop offset="1" stop-color="#3AAFB6"/>
</linearGradient>
<clipPath id="clip0_216_822">
<rect width="50" height="50" rx="24" fill="white"/>
</clipPath>
</defs>
</svg>
