<svg width="21" height="21" viewBox="0 0 21 21" fill="none" xmlns="http://www.w3.org/2000/svg">
<path d="M20.6146 18.7591L18.5181 16.6626C18.9792 15.8812 19.2496 14.973 19.2496 14C19.2496 11.1003 16.8994 8.75 13.9997 8.75C11.1 8.75 8.74982 11.1003 8.74982 14C8.74982 16.8997 11.1 19.25 13.9997 19.25C14.9727 19.25 15.8809 18.9805 16.6623 18.5185L18.7587 20.615C19.0151 20.8714 19.3511 20.9991 19.6871 20.9991C20.0231 20.9991 20.3591 20.8714 20.6154 20.615C21.1282 20.1031 21.1273 19.271 20.6146 18.7591ZM13.41 16.6224C12.8841 16.6224 12.3574 16.4255 11.9549 16.0326L10.7702 14.8671C10.4245 14.5285 10.4202 13.9746 10.7579 13.6299C11.0956 13.2842 11.6495 13.279 11.9951 13.6176L13.1799 14.7822C13.3058 14.9065 13.5123 14.9039 13.6366 14.7805L16.0104 12.4845C16.3578 12.1511 16.9125 12.1608 17.2476 12.5099C17.5819 12.8581 17.5705 13.412 17.2223 13.7471L14.8572 16.0344C14.4617 16.4246 13.9367 16.6215 13.4108 16.6215L13.41 16.6224ZM8.74982 19.6875C8.74982 20.4129 8.16271 21 7.43735 21H4.8124C2.15858 21 2.65912e-07 18.8414 2.65912e-07 16.1875V4.8125C-0.000874716 2.15863 2.15771 0 4.81152 0H10.3615C11.6469 0 12.8552 0.5005 13.7643 1.40962L16.0892 3.7345C16.8023 4.44763 17.2678 5.3515 17.4331 6.34637C17.5521 7.06125 17.0691 7.75513 16.3543 7.875C16.2974 7.88462 11.3739 7.875 11.3739 7.875C10.407 7.875 9.62393 7.09188 9.62393 6.125V2.625H4.81152C3.6058 2.625 2.62407 3.60675 2.62407 4.8125V16.1875C2.62407 17.3932 3.6058 18.375 4.81152 18.375H7.43647C8.16183 18.375 8.74894 18.9621 8.74894 19.6875H8.74982ZM6.99986 11.375H5.68738C4.96202 11.375 4.37491 10.7879 4.37491 10.0625C4.37491 9.33712 4.96202 8.75 5.68738 8.75H6.99986C7.72521 8.75 8.31233 9.33712 8.31233 10.0625C8.31233 10.7879 7.72521 11.375 6.99986 11.375ZM6.12487 13.125C6.85023 13.125 7.43735 13.7121 7.43735 14.4375C7.43735 15.1629 6.85023 15.75 6.12487 15.75H5.68738C4.96202 15.75 4.37491 15.1629 4.37491 14.4375C4.37491 13.7121 4.96202 13.125 5.68738 13.125H6.12487Z" fill="#94A3B8"/>
</svg>
