<svg width="20" height="20" viewBox="0 0 20 20" fill="none" xmlns="http://www.w3.org/2000/svg">
<path d="M8.33333 18.75C8.33333 19.4408 7.77417 20 7.08333 20H4.58333C2.05583 20 0 17.9442 0 15.4167V6.25C0 3.7225 2.05583 1.66667 4.58333 1.66667H5V1.25C5 0.559167 5.55917 0 6.25 0C6.94083 0 7.5 0.559167 7.5 1.25V1.66667H12.5V1.25C12.5 0.559167 13.06 0 13.75 0C14.44 0 15 0.559167 15 1.25V1.66667H15.4167C17.9433 1.66667 20 3.7225 20 6.25C20 6.94083 19.44 7.5 18.75 7.5H2.5V15.4167C2.5 16.565 3.435 17.5 4.58333 17.5H7.08333C7.77417 17.5 8.33333 18.0592 8.33333 18.75ZM20 14.5833C20 17.575 17.575 20 14.5833 20C11.5917 20 9.16667 17.575 9.16667 14.5833C9.16667 11.5917 11.5917 9.16667 14.5833 9.16667C17.575 9.16667 20 11.5917 20 14.5833ZM16.5367 14.7692L15.8333 14.0658V12.9167C15.8333 12.2267 15.2733 11.6667 14.5833 11.6667C13.8933 11.6667 13.3333 12.2267 13.3333 12.9167V14.4108C13.3333 14.8525 13.5092 15.2767 13.8217 15.5892L14.7692 16.5367C15.2575 17.025 16.0483 17.025 16.5367 16.5367C17.025 16.0483 17.025 15.2575 16.5367 14.7692Z" fill="#94A3B8"/>
</svg>
