<svg width="20" height="20" viewBox="0 0 20 20" fill="none" xmlns="http://www.w3.org/2000/svg">
<path d="M15.4167 0H4.58333C2.05833 0 0 2.05833 0 4.58333V15.4167C0 17.9417 2.05833 20 4.58333 20H15.4167C17.9417 20 20 17.9417 20 15.4167V4.58333C20 2.05833 17.9417 0 15.4167 0ZM17.5 15.4167C17.5 16.5667 16.5667 17.5 15.4167 17.5H4.58333C3.43333 17.5 2.5 16.5667 2.5 15.4167V4.58333C2.5 3.43333 3.43333 2.5 4.58333 2.5H15.4167C16.5667 2.5 17.5 3.43333 17.5 4.58333V15.4167ZM4.16667 5.41667C4.16667 4.725 4.725 4.16667 5.41667 4.16667H12.0833C12.775 4.16667 13.3333 4.725 13.3333 5.41667C13.3333 6.10833 12.775 6.66667 12.0833 6.66667H5.41667C4.725 6.66667 4.16667 6.10833 4.16667 5.41667ZM15.8333 10C15.8333 10.6917 15.275 11.25 14.5833 11.25H5.41667C4.725 11.25 4.16667 10.6917 4.16667 10C4.16667 9.30833 4.725 8.75 5.41667 8.75H14.5833C15.275 8.75 15.8333 9.30833 15.8333 10ZM8.33333 14.5833C8.33333 15.275 7.775 15.8333 7.08333 15.8333H5.41667C4.725 15.8333 4.16667 15.275 4.16667 14.5833C4.16667 13.8917 4.725 13.3333 5.41667 13.3333H7.08333C7.775 13.3333 8.33333 13.8917 8.33333 14.5833Z" fill="#94A3B8"/>
</svg>
